<!DOCTYPE svg PUBLIC "-//W3C//DTD SVG 1.1//EN" "http://www.w3.org/Graphics/SVG/1.1/DTD/svg11.dtd">
<svg xmlns="http://www.w3.org/2000/svg" xmlns:xlink="http://www.w3.org/1999/xlink" xmlns:jfreesvg="http://www.jfree.org/jfreesvg/svg" width="2000mm" height="4000mm" text-rendering="auto" shape-rendering="auto">
<defs></defs>
<rect x="250" y="250" width="1015" height="70" style="fill: rgb(191,144,0); fill-opacity: 1.0" /><rect x="395" y="290" width="145" height="70" style="fill: rgb(35,35,35); fill-opacity: 1.0" /><rect x="685" y="290" width="145" height="70" style="fill: rgb(35,35,35); fill-opacity: 1.0" /><rect x="975" y="290" width="145" height="70" style="fill: rgb(35,35,35); fill-opacity: 1.0" /><rect x="250" y="320" width="1015" height="110" style="fill: rgb(255,230,153); fill-opacity: 1.0" /><rect x="395" y="320" width="145" height="110" style="fill: rgb(64,64,64); fill-opacity: 1.0" /><rect x="685" y="320" width="145" height="110" style="fill: rgb(64,64,64); fill-opacity: 1.0" /><rect x="975" y="320" width="145" height="110" style="fill: rgb(64,64,64); fill-opacity: 1.0" /><rect x="250" y="430" width="1015" height="110" style="fill: rgb(187,178,139); fill-opacity: 1.0" /><rect x="395" y="430" width="145" height="110" style="fill: rgb(118,113,113); fill-opacity: 1.0" /><rect x="685" y="430" width="145" height="110" style="fill: rgb(118,113,113); fill-opacity: 1.0" /><rect x="975" y="430" width="145" height="110" style="fill: rgb(118,113,113); fill-opacity: 1.0" /><rect x="250" y="540" width="1015" height="45" style="fill: rgb(244,177,131); fill-opacity: 1.0" /><rect x="170" y="430" width="80" height="110" style="fill: rgb(187,178,139); fill-opacity: 1.0" /><rect x="170" y="540" width="80" height="45" style="fill: rgb(244,177,131); fill-opacity: 1.0" /><rect x="1265" y="250" width="145" height="335" style="fill: rgb(244,177,131); fill-opacity: 1.0" /><rect x="1410" y="250" width="1015" height="70" style="fill: rgb(191,144,0); fill-opacity: 1.0" /><rect x="1555" y="290" width="145" height="70" style="fill: rgb(35,35,35); fill-opacity: 1.0" /><rect x="1845" y="290" width="145" height="70" style="fill: rgb(35,35,35); fill-opacity: 1.0" /><rect x="2135" y="290" width="145" height="70" style="fill: rgb(35,35,35); fill-opacity: 1.0" /><rect x="1410" y="320" width="1015" height="110" style="fill: rgb(255,230,153); fill-opacity: 1.0" /><rect x="1555" y="320" width="145" height="110" style="fill: rgb(64,64,64); fill-opacity: 1.0" /><rect x="1845" y="320" width="145" height="110" style="fill: rgb(64,64,64); fill-opacity: 1.0" /><rect x="2135" y="320" width="145" height="110" style="fill: rgb(64,64,64); fill-opacity: 1.0" /><rect x="1410" y="430" width="1015" height="110" style="fill: rgb(187,178,139); fill-opacity: 1.0" /><rect x="1555" y="430" width="145" height="110" style="fill: rgb(118,113,113); fill-opacity: 1.0" /><rect x="1845" y="430" width="145" height="110" style="fill: rgb(118,113,113); fill-opacity: 1.0" /><rect x="2135" y="430" width="145" height="110" style="fill: rgb(118,113,113); fill-opacity: 1.0" /><rect x="1410" y="540" width="1015" height="45" style="fill: rgb(244,177,131); fill-opacity: 1.0" /><rect x="250" y="585" width="1015" height="70" style="fill: rgb(191,144,0); fill-opacity: 1.0" /><rect x="395" y="625" width="145" height="70" style="fill: rgb(35,35,35); fill-opacity: 1.0" /><rect x="685" y="625" width="145" height="70" style="fill: rgb(35,35,35); fill-opacity: 1.0" /><rect x="975" y="625" width="145" height="70" style="fill: rgb(35,35,35); fill-opacity: 1.0" /><rect x="250" y="655" width="1015" height="110" style="fill: rgb(255,230,153); fill-opacity: 1.0" /><rect x="395" y="655" width="145" height="110" style="fill: rgb(64,64,64); fill-opacity: 1.0" /><rect x="685" y="655" width="145" height="110" style="fill: rgb(64,64,64); fill-opacity: 1.0" /><rect x="975" y="655" width="145" height="110" style="fill: rgb(64,64,64); fill-opacity: 1.0" /><rect x="250" y="765" width="1015" height="110" style="fill: rgb(187,178,139); fill-opacity: 1.0" /><rect x="395" y="765" width="145" height="110" style="fill: rgb(118,113,113); fill-opacity: 1.0" /><rect x="685" y="765" width="145" height="110" style="fill: rgb(118,113,113); fill-opacity: 1.0" /><rect x="975" y="765" width="145" height="110" style="fill: rgb(118,113,113); fill-opacity: 1.0" /><rect x="250" y="875" width="1015" height="45" style="fill: rgb(244,177,131); fill-opacity: 1.0" /><rect x="170" y="765" width="80" height="110" style="fill: rgb(187,178,139); fill-opacity: 1.0" /><rect x="170" y="875" width="80" height="45" style="fill: rgb(244,177,131); fill-opacity: 1.0" /><rect x="1265" y="585" width="145" height="335" style="fill: rgb(244,177,131); fill-opacity: 1.0" /><rect x="1410" y="585" width="1015" height="70" style="fill: rgb(191,144,0); fill-opacity: 1.0" /><rect x="1555" y="625" width="145" height="70" style="fill: rgb(35,35,35); fill-opacity: 1.0" /><rect x="1845" y="625" width="145" height="70" style="fill: rgb(35,35,35); fill-opacity: 1.0" /><rect x="2135" y="625" width="145" height="70" style="fill: rgb(35,35,35); fill-opacity: 1.0" /><rect x="1410" y="655" width="1015" height="110" style="fill: rgb(255,230,153); fill-opacity: 1.0" /><rect x="1555" y="655" width="145" height="110" style="fill: rgb(64,64,64); fill-opacity: 1.0" /><rect x="1845" y="655" width="145" height="110" style="fill: rgb(64,64,64); fill-opacity: 1.0" /><rect x="2135" y="655" width="145" height="110" style="fill: rgb(64,64,64); fill-opacity: 1.0" /><rect x="1410" y="765" width="1015" height="110" style="fill: rgb(187,178,139); fill-opacity: 1.0" /><rect x="1555" y="765" width="145" height="110" style="fill: rgb(118,113,113); fill-opacity: 1.0" /><rect x="1845" y="765" width="145" height="110" style="fill: rgb(118,113,113); fill-opacity: 1.0" /><rect x="2135" y="765" width="145" height="110" style="fill: rgb(118,113,113); fill-opacity: 1.0" /><rect x="1410" y="875" width="1015" height="45" style="fill: rgb(244,177,131); fill-opacity: 1.0" /><rect x="250" y="920" width="1015" height="70" style="fill: rgb(191,144,0); fill-opacity: 1.0" /><rect x="395" y="960" width="145" height="70" style="fill: rgb(35,35,35); fill-opacity: 1.0" /><rect x="685" y="960" width="145" height="70" style="fill: rgb(35,35,35); fill-opacity: 1.0" /><rect x="975" y="960" width="145" height="70" style="fill: rgb(35,35,35); fill-opacity: 1.0" /><rect x="250" y="990" width="1015" height="110" style="fill: rgb(255,230,153); fill-opacity: 1.0" /><rect x="395" y="990" width="145" height="110" style="fill: rgb(64,64,64); fill-opacity: 1.0" /><rect x="685" y="990" width="145" height="110" style="fill: rgb(64,64,64); fill-opacity: 1.0" /><rect x="975" y="990" width="145" height="110" style="fill: rgb(64,64,64); fill-opacity: 1.0" /><rect x="250" y="1100" width="1015" height="110" style="fill: rgb(187,178,139); fill-opacity: 1.0" /><rect x="395" y="1100" width="145" height="110" style="fill: rgb(118,113,113); fill-opacity: 1.0" /><rect x="685" y="1100" width="145" height="110" style="fill: rgb(118,113,113); fill-opacity: 1.0" /><rect x="975" y="1100" width="145" height="110" style="fill: rgb(118,113,113); fill-opacity: 1.0" /><rect x="250" y="1210" width="1015" height="45" style="fill: rgb(244,177,131); fill-opacity: 1.0" /><rect x="170" y="1100" width="80" height="110" style="fill: rgb(187,178,139); fill-opacity: 1.0" /><rect x="170" y="1210" width="80" height="45" style="fill: rgb(244,177,131); fill-opacity: 1.0" /><rect x="1265" y="920" width="145" height="335" style="fill: rgb(244,177,131); fill-opacity: 1.0" /><rect x="1410" y="920" width="1015" height="70" style="fill: rgb(191,144,0); fill-opacity: 1.0" /><rect x="1555" y="960" width="145" height="70" style="fill: rgb(35,35,35); fill-opacity: 1.0" /><rect x="1845" y="960" width="145" height="70" style="fill: rgb(35,35,35); fill-opacity: 1.0" /><rect x="2135" y="960" width="145" height="70" style="fill: rgb(35,35,35); fill-opacity: 1.0" /><rect x="1410" y="990" width="1015" height="110" style="fill: rgb(255,230,153); fill-opacity: 1.0" /><rect x="1555" y="990" width="145" height="110" style="fill: rgb(64,64,64); fill-opacity: 1.0" /><rect x="1845" y="990" width="145" height="110" style="fill: rgb(64,64,64); fill-opacity: 1.0" /><rect x="2135" y="990" width="145" height="110" style="fill: rgb(64,64,64); fill-opacity: 1.0" /><rect x="1410" y="1100" width="1015" height="110" style="fill: rgb(187,178,139); fill-opacity: 1.0" /><rect x="1555" y="1100" width="145" height="110" style="fill: rgb(118,113,113); fill-opacity: 1.0" /><rect x="1845" y="1100" width="145" height="110" style="fill: rgb(118,113,113); fill-opacity: 1.0" /><rect x="2135" y="1100" width="145" height="110" style="fill: rgb(118,113,113); fill-opacity: 1.0" /><rect x="1410" y="1210" width="1015" height="45" style="fill: rgb(244,177,131); fill-opacity: 1.0" /><rect x="250" y="1255" width="1015" height="70" style="fill: rgb(191,144,0); fill-opacity: 1.0" /><rect x="395" y="1295" width="145" height="70" style="fill: rgb(35,35,35); fill-opacity: 1.0" /><rect x="685" y="1295" width="145" height="70" style="fill: rgb(35,35,35); fill-opacity: 1.0" /><rect x="975" y="1295" width="145" height="70" style="fill: rgb(35,35,35); fill-opacity: 1.0" /><rect x="250" y="1325" width="1015" height="110" style="fill: rgb(255,230,153); fill-opacity: 1.0" /><rect x="395" y="1325" width="145" height="110" style="fill: rgb(64,64,64); fill-opacity: 1.0" /><rect x="685" y="1325" width="145" height="110" style="fill: rgb(64,64,64); fill-opacity: 1.0" /><rect x="975" y="1325" width="145" height="110" style="fill: rgb(64,64,64); fill-opacity: 1.0" /><rect x="250" y="1435" width="1015" height="110" style="fill: rgb(187,178,139); fill-opacity: 1.0" /><rect x="395" y="1435" width="145" height="110" style="fill: rgb(118,113,113); fill-opacity: 1.0" /><rect x="685" y="1435" width="145" height="110" style="fill: rgb(118,113,113); fill-opacity: 1.0" /><rect x="975" y="1435" width="145" height="110" style="fill: rgb(118,113,113); fill-opacity: 1.0" /><rect x="250" y="1545" width="1015" height="45" style="fill: rgb(244,177,131); fill-opacity: 1.0" /><rect x="170" y="1435" width="80" height="110" style="fill: rgb(187,178,139); fill-opacity: 1.0" /><rect x="170" y="1545" width="80" height="45" style="fill: rgb(244,177,131); fill-opacity: 1.0" /><rect x="1265" y="1255" width="145" height="335" style="fill: rgb(244,177,131); fill-opacity: 1.0" /><rect x="1410" y="1255" width="1015" height="70" style="fill: rgb(191,144,0); fill-opacity: 1.0" /><rect x="1555" y="1295" width="145" height="70" style="fill: rgb(35,35,35); fill-opacity: 1.0" /><rect x="1845" y="1295" width="145" height="70" style="fill: rgb(35,35,35); fill-opacity: 1.0" /><rect x="2135" y="1295" width="145" height="70" style="fill: rgb(35,35,35); fill-opacity: 1.0" /><rect x="1410" y="1325" width="1015" height="110" style="fill: rgb(255,230,153); fill-opacity: 1.0" /><rect x="1555" y="1325" width="145" height="110" style="fill: rgb(64,64,64); fill-opacity: 1.0" /><rect x="1845" y="1325" width="145" height="110" style="fill: rgb(64,64,64); fill-opacity: 1.0" /><rect x="2135" y="1325" width="145" height="110" style="fill: rgb(64,64,64); fill-opacity: 1.0" /><rect x="1410" y="1435" width="1015" height="110" style="fill: rgb(187,178,139); fill-opacity: 1.0" /><rect x="1555" y="1435" width="145" height="110" style="fill: rgb(118,113,113); fill-opacity: 1.0" /><rect x="1845" y="1435" width="145" height="110" style="fill: rgb(118,113,113); fill-opacity: 1.0" /><rect x="2135" y="1435" width="145" height="110" style="fill: rgb(118,113,113); fill-opacity: 1.0" /><rect x="1410" y="1545" width="1015" height="45" style="fill: rgb(244,177,131); fill-opacity: 1.0" /><rect x="250" y="1590" width="1015" height="70" style="fill: rgb(191,144,0); fill-opacity: 1.0" /><rect x="395" y="1630" width="145" height="70" style="fill: rgb(35,35,35); fill-opacity: 1.0" /><rect x="685" y="1630" width="145" height="70" style="fill: rgb(35,35,35); fill-opacity: 1.0" /><rect x="975" y="1630" width="145" height="70" style="fill: rgb(35,35,35); fill-opacity: 1.0" /><rect x="250" y="1660" width="1015" height="110" style="fill: rgb(255,230,153); fill-opacity: 1.0" /><rect x="395" y="1660" width="145" height="110" style="fill: rgb(64,64,64); fill-opacity: 1.0" /><rect x="685" y="1660" width="145" height="110" style="fill: rgb(64,64,64); fill-opacity: 1.0" /><rect x="975" y="1660" width="145" height="110" style="fill: rgb(64,64,64); fill-opacity: 1.0" /><rect x="250" y="1770" width="1015" height="110" style="fill: rgb(187,178,139); fill-opacity: 1.0" /><rect x="395" y="1770" width="145" height="110" style="fill: rgb(118,113,113); fill-opacity: 1.0" /><rect x="685" y="1770" width="145" height="110" style="fill: rgb(118,113,113); fill-opacity: 1.0" /><rect x="975" y="1770" width="145" height="110" style="fill: rgb(118,113,113); fill-opacity: 1.0" /><rect x="250" y="1880" width="1015" height="45" style="fill: rgb(244,177,131); fill-opacity: 1.0" /><rect x="170" y="1770" width="80" height="110" style="fill: rgb(187,178,139); fill-opacity: 1.0" /><rect x="170" y="1880" width="80" height="45" style="fill: rgb(244,177,131); fill-opacity: 1.0" /><rect x="1265" y="1590" width="145" height="335" style="fill: rgb(244,177,131); fill-opacity: 1.0" /><rect x="1410" y="1590" width="1015" height="70" style="fill: rgb(191,144,0); fill-opacity: 1.0" /><rect x="1555" y="1630" width="145" height="70" style="fill: rgb(35,35,35); fill-opacity: 1.0" /><rect x="1845" y="1630" width="145" height="70" style="fill: rgb(35,35,35); fill-opacity: 1.0" /><rect x="2135" y="1630" width="145" height="70" style="fill: rgb(35,35,35); fill-opacity: 1.0" /><rect x="1410" y="1660" width="1015" height="110" style="fill: rgb(255,230,153); fill-opacity: 1.0" /><rect x="1555" y="1660" width="145" height="110" style="fill: rgb(64,64,64); fill-opacity: 1.0" /><rect x="1845" y="1660" width="145" height="110" style="fill: rgb(64,64,64); fill-opacity: 1.0" /><rect x="2135" y="1660" width="145" height="110" style="fill: rgb(64,64,64); fill-opacity: 1.0" /><rect x="1410" y="1770" width="1015" height="110" style="fill: rgb(187,178,139); fill-opacity: 1.0" /><rect x="1555" y="1770" width="145" height="110" style="fill: rgb(118,113,113); fill-opacity: 1.0" /><rect x="1845" y="1770" width="145" height="110" style="fill: rgb(118,113,113); fill-opacity: 1.0" /><rect x="2135" y="1770" width="145" height="110" style="fill: rgb(118,113,113); fill-opacity: 1.0" /><rect x="1410" y="1880" width="1015" height="45" style="fill: rgb(244,177,131); fill-opacity: 1.0" /><rect x="250" y="1925" width="1015" height="70" style="fill: rgb(191,144,0); fill-opacity: 1.0" /><rect x="395" y="1965" width="145" height="70" style="fill: rgb(35,35,35); fill-opacity: 1.0" /><rect x="685" y="1965" width="145" height="70" style="fill: rgb(35,35,35); fill-opacity: 1.0" /><rect x="975" y="1965" width="145" height="70" style="fill: rgb(35,35,35); fill-opacity: 1.0" /><rect x="250" y="1995" width="1015" height="110" style="fill: rgb(255,230,153); fill-opacity: 1.0" /><rect x="395" y="1995" width="145" height="110" style="fill: rgb(64,64,64); fill-opacity: 1.0" /><rect x="685" y="1995" width="145" height="110" style="fill: rgb(64,64,64); fill-opacity: 1.0" /><rect x="975" y="1995" width="145" height="110" style="fill: rgb(64,64,64); fill-opacity: 1.0" /><rect x="250" y="2105" width="1015" height="110" style="fill: rgb(187,178,139); fill-opacity: 1.0" /><rect x="395" y="2105" width="145" height="110" style="fill: rgb(118,113,113); fill-opacity: 1.0" /><rect x="685" y="2105" width="145" height="110" style="fill: rgb(118,113,113); fill-opacity: 1.0" /><rect x="975" y="2105" width="145" height="110" style="fill: rgb(118,113,113); fill-opacity: 1.0" /><rect x="250" y="2215" width="1015" height="45" style="fill: rgb(244,177,131); fill-opacity: 1.0" /><rect x="170" y="2105" width="80" height="110" style="fill: rgb(187,178,139); fill-opacity: 1.0" /><rect x="170" y="2215" width="80" height="45" style="fill: rgb(244,177,131); fill-opacity: 1.0" /><rect x="1265" y="1925" width="145" height="335" style="fill: rgb(244,177,131); fill-opacity: 1.0" /><rect x="1410" y="1925" width="1015" height="70" style="fill: rgb(191,144,0); fill-opacity: 1.0" /><rect x="1555" y="1965" width="145" height="70" style="fill: rgb(35,35,35); fill-opacity: 1.0" /><rect x="1845" y="1965" width="145" height="70" style="fill: rgb(35,35,35); fill-opacity: 1.0" /><rect x="2135" y="1965" width="145" height="70" style="fill: rgb(35,35,35); fill-opacity: 1.0" /><rect x="1410" y="1995" width="1015" height="110" style="fill: rgb(255,230,153); fill-opacity: 1.0" /><rect x="1555" y="1995" width="145" height="110" style="fill: rgb(64,64,64); fill-opacity: 1.0" /><rect x="1845" y="1995" width="145" height="110" style="fill: rgb(64,64,64); fill-opacity: 1.0" /><rect x="2135" y="1995" width="145" height="110" style="fill: rgb(64,64,64); fill-opacity: 1.0" /><rect x="1410" y="2105" width="1015" height="110" style="fill: rgb(187,178,139); fill-opacity: 1.0" /><rect x="1555" y="2105" width="145" height="110" style="fill: rgb(118,113,113); fill-opacity: 1.0" /><rect x="1845" y="2105" width="145" height="110" style="fill: rgb(118,113,113); fill-opacity: 1.0" /><rect x="2135" y="2105" width="145" height="110" style="fill: rgb(118,113,113); fill-opacity: 1.0" /><rect x="1410" y="2215" width="1015" height="45" style="fill: rgb(244,177,131); fill-opacity: 1.0" /><rect x="250" y="2260" width="1015" height="70" style="fill: rgb(191,144,0); fill-opacity: 1.0" /><rect x="395" y="2300" width="145" height="70" style="fill: rgb(35,35,35); fill-opacity: 1.0" /><rect x="685" y="2300" width="145" height="70" style="fill: rgb(35,35,35); fill-opacity: 1.0" /><rect x="975" y="2300" width="145" height="70" style="fill: rgb(35,35,35); fill-opacity: 1.0" /><rect x="250" y="2330" width="1015" height="110" style="fill: rgb(255,230,153); fill-opacity: 1.0" /><rect x="395" y="2330" width="145" height="110" style="fill: rgb(64,64,64); fill-opacity: 1.0" /><rect x="685" y="2330" width="145" height="110" style="fill: rgb(64,64,64); fill-opacity: 1.0" /><rect x="975" y="2330" width="145" height="110" style="fill: rgb(64,64,64); fill-opacity: 1.0" /><rect x="250" y="2440" width="1015" height="110" style="fill: rgb(187,178,139); fill-opacity: 1.0" /><rect x="395" y="2440" width="145" height="110" style="fill: rgb(118,113,113); fill-opacity: 1.0" /><rect x="685" y="2440" width="145" height="110" style="fill: rgb(118,113,113); fill-opacity: 1.0" /><rect x="975" y="2440" width="145" height="110" style="fill: rgb(118,113,113); fill-opacity: 1.0" /><rect x="250" y="2550" width="1015" height="45" style="fill: rgb(244,177,131); fill-opacity: 1.0" /><rect x="170" y="2440" width="80" height="110" style="fill: rgb(187,178,139); fill-opacity: 1.0" /><rect x="170" y="2550" width="80" height="45" style="fill: rgb(244,177,131); fill-opacity: 1.0" /><rect x="1265" y="2260" width="145" height="335" style="fill: rgb(244,177,131); fill-opacity: 1.0" /><rect x="1410" y="2260" width="1015" height="70" style="fill: rgb(191,144,0); fill-opacity: 1.0" /><rect x="1555" y="2300" width="145" height="70" style="fill: rgb(35,35,35); fill-opacity: 1.0" /><rect x="1845" y="2300" width="145" height="70" style="fill: rgb(35,35,35); fill-opacity: 1.0" /><rect x="2135" y="2300" width="145" height="70" style="fill: rgb(35,35,35); fill-opacity: 1.0" /><rect x="1410" y="2330" width="1015" height="110" style="fill: rgb(255,230,153); fill-opacity: 1.0" /><rect x="1555" y="2330" width="145" height="110" style="fill: rgb(64,64,64); fill-opacity: 1.0" /><rect x="1845" y="2330" width="145" height="110" style="fill: rgb(64,64,64); fill-opacity: 1.0" /><rect x="2135" y="2330" width="145" height="110" style="fill: rgb(64,64,64); fill-opacity: 1.0" /><rect x="1410" y="2440" width="1015" height="110" style="fill: rgb(187,178,139); fill-opacity: 1.0" /><rect x="1555" y="2440" width="145" height="110" style="fill: rgb(118,113,113); fill-opacity: 1.0" /><rect x="1845" y="2440" width="145" height="110" style="fill: rgb(118,113,113); fill-opacity: 1.0" /><rect x="2135" y="2440" width="145" height="110" style="fill: rgb(118,113,113); fill-opacity: 1.0" /><rect x="1410" y="2550" width="1015" height="45" style="fill: rgb(244,177,131); fill-opacity: 1.0" /><rect x="250" y="2595" width="1015" height="70" style="fill: rgb(191,144,0); fill-opacity: 1.0" /><rect x="395" y="2635" width="145" height="70" style="fill: rgb(35,35,35); fill-opacity: 1.0" /><rect x="685" y="2635" width="145" height="70" style="fill: rgb(35,35,35); fill-opacity: 1.0" /><rect x="975" y="2635" width="145" height="70" style="fill: rgb(35,35,35); fill-opacity: 1.0" /><rect x="250" y="2665" width="1015" height="110" style="fill: rgb(255,230,153); fill-opacity: 1.0" /><rect x="395" y="2665" width="145" height="110" style="fill: rgb(64,64,64); fill-opacity: 1.0" /><rect x="685" y="2665" width="145" height="110" style="fill: rgb(64,64,64); fill-opacity: 1.0" /><rect x="975" y="2665" width="145" height="110" style="fill: rgb(64,64,64); fill-opacity: 1.0" /><rect x="250" y="2775" width="1015" height="110" style="fill: rgb(187,178,139); fill-opacity: 1.0" /><rect x="395" y="2775" width="145" height="110" style="fill: rgb(118,113,113); fill-opacity: 1.0" /><rect x="685" y="2775" width="145" height="110" style="fill: rgb(118,113,113); fill-opacity: 1.0" /><rect x="975" y="2775" width="145" height="110" style="fill: rgb(118,113,113); fill-opacity: 1.0" /><rect x="250" y="2885" width="1015" height="45" style="fill: rgb(244,177,131); fill-opacity: 1.0" /><rect x="170" y="2775" width="80" height="110" style="fill: rgb(187,178,139); fill-opacity: 1.0" /><rect x="170" y="2885" width="80" height="45" style="fill: rgb(244,177,131); fill-opacity: 1.0" /><rect x="1265" y="2595" width="145" height="335" style="fill: rgb(244,177,131); fill-opacity: 1.0" /><rect x="1410" y="2595" width="1015" height="70" style="fill: rgb(191,144,0); fill-opacity: 1.0" /><rect x="1555" y="2635" width="145" height="70" style="fill: rgb(35,35,35); fill-opacity: 1.0" /><rect x="1845" y="2635" width="145" height="70" style="fill: rgb(35,35,35); fill-opacity: 1.0" /><rect x="2135" y="2635" width="145" height="70" style="fill: rgb(35,35,35); fill-opacity: 1.0" /><rect x="1410" y="2665" width="1015" height="110" style="fill: rgb(255,230,153); fill-opacity: 1.0" /><rect x="1555" y="2665" width="145" height="110" style="fill: rgb(64,64,64); fill-opacity: 1.0" /><rect x="1845" y="2665" width="145" height="110" style="fill: rgb(64,64,64); fill-opacity: 1.0" /><rect x="2135" y="2665" width="145" height="110" style="fill: rgb(64,64,64); fill-opacity: 1.0" /><rect x="1410" y="2775" width="1015" height="110" style="fill: rgb(187,178,139); fill-opacity: 1.0" /><rect x="1555" y="2775" width="145" height="110" style="fill: rgb(118,113,113); fill-opacity: 1.0" /><rect x="1845" y="2775" width="145" height="110" style="fill: rgb(118,113,113); fill-opacity: 1.0" /><rect x="2135" y="2775" width="145" height="110" style="fill: rgb(118,113,113); fill-opacity: 1.0" /><rect x="1410" y="2885" width="1015" height="45" style="fill: rgb(244,177,131); fill-opacity: 1.0" /><rect x="250" y="2930" width="1015" height="70" style="fill: rgb(191,144,0); fill-opacity: 1.0" /><rect x="395" y="2970" width="145" height="70" style="fill: rgb(35,35,35); fill-opacity: 1.0" /><rect x="685" y="2970" width="145" height="70" style="fill: rgb(35,35,35); fill-opacity: 1.0" /><rect x="975" y="2970" width="145" height="70" style="fill: rgb(35,35,35); fill-opacity: 1.0" /><rect x="250" y="3000" width="1015" height="110" style="fill: rgb(255,230,153); fill-opacity: 1.0" /><rect x="395" y="3000" width="145" height="110" style="fill: rgb(64,64,64); fill-opacity: 1.0" /><rect x="685" y="3000" width="145" height="110" style="fill: rgb(64,64,64); fill-opacity: 1.0" /><rect x="975" y="3000" width="145" height="110" style="fill: rgb(64,64,64); fill-opacity: 1.0" /><rect x="250" y="3110" width="1015" height="110" style="fill: rgb(187,178,139); fill-opacity: 1.0" /><rect x="395" y="3110" width="145" height="110" style="fill: rgb(118,113,113); fill-opacity: 1.0" /><rect x="685" y="3110" width="145" height="110" style="fill: rgb(118,113,113); fill-opacity: 1.0" /><rect x="975" y="3110" width="145" height="110" style="fill: rgb(118,113,113); fill-opacity: 1.0" /><rect x="250" y="3220" width="1015" height="45" style="fill: rgb(244,177,131); fill-opacity: 1.0" /><rect x="170" y="3110" width="80" height="110" style="fill: rgb(187,178,139); fill-opacity: 1.0" /><rect x="170" y="3220" width="80" height="45" style="fill: rgb(244,177,131); fill-opacity: 1.0" /><rect x="1265" y="2930" width="145" height="335" style="fill: rgb(244,177,131); fill-opacity: 1.0" /><rect x="1410" y="2930" width="1015" height="70" style="fill: rgb(191,144,0); fill-opacity: 1.0" /><rect x="1555" y="2970" width="145" height="70" style="fill: rgb(35,35,35); fill-opacity: 1.0" /><rect x="1845" y="2970" width="145" height="70" style="fill: rgb(35,35,35); fill-opacity: 1.0" /><rect x="2135" y="2970" width="145" height="70" style="fill: rgb(35,35,35); fill-opacity: 1.0" /><rect x="1410" y="3000" width="1015" height="110" style="fill: rgb(255,230,153); fill-opacity: 1.0" /><rect x="1555" y="3000" width="145" height="110" style="fill: rgb(64,64,64); fill-opacity: 1.0" /><rect x="1845" y="3000" width="145" height="110" style="fill: rgb(64,64,64); fill-opacity: 1.0" /><rect x="2135" y="3000" width="145" height="110" style="fill: rgb(64,64,64); fill-opacity: 1.0" /><rect x="1410" y="3110" width="1015" height="110" style="fill: rgb(187,178,139); fill-opacity: 1.0" /><rect x="1555" y="3110" width="145" height="110" style="fill: rgb(118,113,113); fill-opacity: 1.0" /><rect x="1845" y="3110" width="145" height="110" style="fill: rgb(118,113,113); fill-opacity: 1.0" /><rect x="2135" y="3110" width="145" height="110" style="fill: rgb(118,113,113); fill-opacity: 1.0" /><rect x="1410" y="3220" width="1015" height="45" style="fill: rgb(244,177,131); fill-opacity: 1.0" /><rect x="250" y="3265" width="1015" height="70" style="fill: rgb(191,144,0); fill-opacity: 1.0" /><rect x="395" y="3305" width="145" height="70" style="fill: rgb(35,35,35); fill-opacity: 1.0" /><rect x="685" y="3305" width="145" height="70" style="fill: rgb(35,35,35); fill-opacity: 1.0" /><rect x="975" y="3305" width="145" height="70" style="fill: rgb(35,35,35); fill-opacity: 1.0" /><rect x="250" y="3335" width="1015" height="110" style="fill: rgb(255,230,153); fill-opacity: 1.0" /><rect x="395" y="3335" width="145" height="110" style="fill: rgb(64,64,64); fill-opacity: 1.0" /><rect x="685" y="3335" width="145" height="110" style="fill: rgb(64,64,64); fill-opacity: 1.0" /><rect x="975" y="3335" width="145" height="110" style="fill: rgb(64,64,64); fill-opacity: 1.0" /><rect x="250" y="3445" width="1015" height="110" style="fill: rgb(187,178,139); fill-opacity: 1.0" /><rect x="395" y="3445" width="145" height="110" style="fill: rgb(118,113,113); fill-opacity: 1.0" /><rect x="685" y="3445" width="145" height="110" style="fill: rgb(118,113,113); fill-opacity: 1.0" /><rect x="975" y="3445" width="145" height="110" style="fill: rgb(118,113,113); fill-opacity: 1.0" /><rect x="250" y="3555" width="1015" height="45" style="fill: rgb(244,177,131); fill-opacity: 1.0" /><rect x="170" y="3445" width="80" height="110" style="fill: rgb(187,178,139); fill-opacity: 1.0" /><rect x="170" y="3555" width="80" height="45" style="fill: rgb(244,177,131); fill-opacity: 1.0" /><rect x="1265" y="3265" width="145" height="335" style="fill: rgb(244,177,131); fill-opacity: 1.0" /><rect x="1410" y="3265" width="1015" height="70" style="fill: rgb(191,144,0); fill-opacity: 1.0" /><rect x="1555" y="3305" width="145" height="70" style="fill: rgb(35,35,35); fill-opacity: 1.0" /><rect x="1845" y="3305" width="145" height="70" style="fill: rgb(35,35,35); fill-opacity: 1.0" /><rect x="2135" y="3305" width="145" height="70" style="fill: rgb(35,35,35); fill-opacity: 1.0" /><rect x="1410" y="3335" width="1015" height="110" style="fill: rgb(255,230,153); fill-opacity: 1.0" /><rect x="1555" y="3335" width="145" height="110" style="fill: rgb(64,64,64); fill-opacity: 1.0" /><rect x="1845" y="3335" width="145" height="110" style="fill: rgb(64,64,64); fill-opacity: 1.0" /><rect x="2135" y="3335" width="145" height="110" style="fill: rgb(64,64,64); fill-opacity: 1.0" /><rect x="1410" y="3445" width="1015" height="110" style="fill: rgb(187,178,139); fill-opacity: 1.0" /><rect x="1555" y="3445" width="145" height="110" style="fill: rgb(118,113,113); fill-opacity: 1.0" /><rect x="1845" y="3445" width="145" height="110" style="fill: rgb(118,113,113); fill-opacity: 1.0" /><rect x="2135" y="3445" width="145" height="110" style="fill: rgb(118,113,113); fill-opacity: 1.0" /><rect x="1410" y="3555" width="1015" height="45" style="fill: rgb(244,177,131); fill-opacity: 1.0" /><rect x="250" y="3600" width="1015" height="70" style="fill: rgb(191,144,0); fill-opacity: 1.0" /><rect x="395" y="3640" width="145" height="70" style="fill: rgb(35,35,35); fill-opacity: 1.0" /><rect x="685" y="3640" width="145" height="70" style="fill: rgb(35,35,35); fill-opacity: 1.0" /><rect x="975" y="3640" width="145" height="70" style="fill: rgb(35,35,35); fill-opacity: 1.0" /><rect x="250" y="3670" width="1015" height="110" style="fill: rgb(255,230,153); fill-opacity: 1.0" /><rect x="395" y="3670" width="145" height="110" style="fill: rgb(64,64,64); fill-opacity: 1.0" /><rect x="685" y="3670" width="145" height="110" style="fill: rgb(64,64,64); fill-opacity: 1.0" /><rect x="975" y="3670" width="145" height="110" style="fill: rgb(64,64,64); fill-opacity: 1.0" /><rect x="250" y="3780" width="1015" height="110" style="fill: rgb(187,178,139); fill-opacity: 1.0" /><rect x="395" y="3780" width="145" height="110" style="fill: rgb(118,113,113); fill-opacity: 1.0" /><rect x="685" y="3780" width="145" height="110" style="fill: rgb(118,113,113); fill-opacity: 1.0" /><rect x="975" y="3780" width="145" height="110" style="fill: rgb(118,113,113); fill-opacity: 1.0" /><rect x="250" y="3890" width="1015" height="45" style="fill: rgb(244,177,131); fill-opacity: 1.0" /><rect x="170" y="3780" width="80" height="110" style="fill: rgb(187,178,139); fill-opacity: 1.0" /><rect x="170" y="3890" width="80" height="45" style="fill: rgb(244,177,131); fill-opacity: 1.0" /><rect x="1265" y="3600" width="145" height="335" style="fill: rgb(244,177,131); fill-opacity: 1.0" /><rect x="1410" y="3600" width="1015" height="70" style="fill: rgb(191,144,0); fill-opacity: 1.0" /><rect x="1555" y="3640" width="145" height="70" style="fill: rgb(35,35,35); fill-opacity: 1.0" /><rect x="1845" y="3640" width="145" height="70" style="fill: rgb(35,35,35); fill-opacity: 1.0" /><rect x="2135" y="3640" width="145" height="70" style="fill: rgb(35,35,35); fill-opacity: 1.0" /><rect x="1410" y="3670" width="1015" height="110" style="fill: rgb(255,230,153); fill-opacity: 1.0" /><rect x="1555" y="3670" width="145" height="110" style="fill: rgb(64,64,64); fill-opacity: 1.0" /><rect x="1845" y="3670" width="145" height="110" style="fill: rgb(64,64,64); fill-opacity: 1.0" /><rect x="2135" y="3670" width="145" height="110" style="fill: rgb(64,64,64); fill-opacity: 1.0" /><rect x="1410" y="3780" width="1015" height="110" style="fill: rgb(187,178,139); fill-opacity: 1.0" /><rect x="1555" y="3780" width="145" height="110" style="fill: rgb(118,113,113); fill-opacity: 1.0" /><rect x="1845" y="3780" width="145" height="110" style="fill: rgb(118,113,113); fill-opacity: 1.0" /><rect x="2135" y="3780" width="145" height="110" style="fill: rgb(118,113,113); fill-opacity: 1.0" /><rect x="1410" y="3890" width="1015" height="45" style="fill: rgb(244,177,131); fill-opacity: 1.0" /><rect x="250" y="3935" width="1015" height="70" style="fill: rgb(191,144,0); fill-opacity: 1.0" /><rect x="395" y="3975" width="145" height="70" style="fill: rgb(35,35,35); fill-opacity: 1.0" /><rect x="685" y="3975" width="145" height="70" style="fill: rgb(35,35,35); fill-opacity: 1.0" /><rect x="975" y="3975" width="145" height="70" style="fill: rgb(35,35,35); fill-opacity: 1.0" /><rect x="250" y="4005" width="1015" height="110" style="fill: rgb(255,230,153); fill-opacity: 1.0" /><rect x="395" y="4005" width="145" height="110" style="fill: rgb(64,64,64); fill-opacity: 1.0" /><rect x="685" y="4005" width="145" height="110" style="fill: rgb(64,64,64); fill-opacity: 1.0" /><rect x="975" y="4005" width="145" height="110" style="fill: rgb(64,64,64); fill-opacity: 1.0" /><rect x="250" y="4115" width="1015" height="110" style="fill: rgb(187,178,139); fill-opacity: 1.0" /><rect x="395" y="4115" width="145" height="110" style="fill: rgb(118,113,113); fill-opacity: 1.0" /><rect x="685" y="4115" width="145" height="110" style="fill: rgb(118,113,113); fill-opacity: 1.0" /><rect x="975" y="4115" width="145" height="110" style="fill: rgb(118,113,113); fill-opacity: 1.0" /><rect x="250" y="4225" width="1015" height="45" style="fill: rgb(244,177,131); fill-opacity: 1.0" /><rect x="170" y="4115" width="80" height="110" style="fill: rgb(187,178,139); fill-opacity: 1.0" /><rect x="170" y="4225" width="80" height="45" style="fill: rgb(244,177,131); fill-opacity: 1.0" /><rect x="1265" y="3935" width="145" height="335" style="fill: rgb(244,177,131); fill-opacity: 1.0" /><rect x="1410" y="3935" width="1015" height="70" style="fill: rgb(191,144,0); fill-opacity: 1.0" /><rect x="1555" y="3975" width="145" height="70" style="fill: rgb(35,35,35); fill-opacity: 1.0" /><rect x="1845" y="3975" width="145" height="70" style="fill: rgb(35,35,35); fill-opacity: 1.0" /><rect x="2135" y="3975" width="145" height="70" style="fill: rgb(35,35,35); fill-opacity: 1.0" /><rect x="1410" y="4005" width="1015" height="110" style="fill: rgb(255,230,153); fill-opacity: 1.0" /><rect x="1555" y="4005" width="145" height="110" style="fill: rgb(64,64,64); fill-opacity: 1.0" /><rect x="1845" y="4005" width="145" height="110" style="fill: rgb(64,64,64); fill-opacity: 1.0" /><rect x="2135" y="4005" width="145" height="110" style="fill: rgb(64,64,64); fill-opacity: 1.0" /><rect x="1410" y="4115" width="1015" height="110" style="fill: rgb(187,178,139); fill-opacity: 1.0" /><rect x="1555" y="4115" width="145" height="110" style="fill: rgb(118,113,113); fill-opacity: 1.0" /><rect x="1845" y="4115" width="145" height="110" style="fill: rgb(118,113,113); fill-opacity: 1.0" /><rect x="2135" y="4115" width="145" height="110" style="fill: rgb(118,113,113); fill-opacity: 1.0" /><rect x="1410" y="4225" width="1015" height="45" style="fill: rgb(244,177,131); fill-opacity: 1.0" /><rect x="250" y="4270" width="1015" height="70" style="fill: rgb(191,144,0); fill-opacity: 1.0" /><rect x="395" y="4310" width="145" height="70" style="fill: rgb(35,35,35); fill-opacity: 1.0" /><rect x="685" y="4310" width="145" height="70" style="fill: rgb(35,35,35); fill-opacity: 1.0" /><rect x="975" y="4310" width="145" height="70" style="fill: rgb(35,35,35); fill-opacity: 1.0" /><rect x="250" y="4340" width="1015" height="110" style="fill: rgb(255,230,153); fill-opacity: 1.0" /><rect x="395" y="4340" width="145" height="110" style="fill: rgb(64,64,64); fill-opacity: 1.0" /><rect x="685" y="4340" width="145" height="110" style="fill: rgb(64,64,64); fill-opacity: 1.0" /><rect x="975" y="4340" width="145" height="110" style="fill: rgb(64,64,64); fill-opacity: 1.0" /><rect x="250" y="4450" width="1015" height="110" style="fill: rgb(187,178,139); fill-opacity: 1.0" /><rect x="395" y="4450" width="145" height="110" style="fill: rgb(118,113,113); fill-opacity: 1.0" /><rect x="685" y="4450" width="145" height="110" style="fill: rgb(118,113,113); fill-opacity: 1.0" /><rect x="975" y="4450" width="145" height="110" style="fill: rgb(118,113,113); fill-opacity: 1.0" /><rect x="250" y="4560" width="1015" height="45" style="fill: rgb(244,177,131); fill-opacity: 1.0" /><rect x="170" y="4450" width="80" height="110" style="fill: rgb(187,178,139); fill-opacity: 1.0" /><rect x="170" y="4560" width="80" height="45" style="fill: rgb(244,177,131); fill-opacity: 1.0" /><rect x="1265" y="4270" width="145" height="335" style="fill: rgb(244,177,131); fill-opacity: 1.0" /><rect x="1410" y="4270" width="1015" height="70" style="fill: rgb(191,144,0); fill-opacity: 1.0" /><rect x="1555" y="4310" width="145" height="70" style="fill: rgb(35,35,35); fill-opacity: 1.0" /><rect x="1845" y="4310" width="145" height="70" style="fill: rgb(35,35,35); fill-opacity: 1.0" /><rect x="2135" y="4310" width="145" height="70" style="fill: rgb(35,35,35); fill-opacity: 1.0" /><rect x="1410" y="4340" width="1015" height="110" style="fill: rgb(255,230,153); fill-opacity: 1.0" /><rect x="1555" y="4340" width="145" height="110" style="fill: rgb(64,64,64); fill-opacity: 1.0" /><rect x="1845" y="4340" width="145" height="110" style="fill: rgb(64,64,64); fill-opacity: 1.0" /><rect x="2135" y="4340" width="145" height="110" style="fill: rgb(64,64,64); fill-opacity: 1.0" /><rect x="1410" y="4450" width="1015" height="110" style="fill: rgb(187,178,139); fill-opacity: 1.0" /><rect x="1555" y="4450" width="145" height="110" style="fill: rgb(118,113,113); fill-opacity: 1.0" /><rect x="1845" y="4450" width="145" height="110" style="fill: rgb(118,113,113); fill-opacity: 1.0" /><rect x="2135" y="4450" width="145" height="110" style="fill: rgb(118,113,113); fill-opacity: 1.0" /><rect x="1410" y="4560" width="1015" height="45" style="fill: rgb(244,177,131); fill-opacity: 1.0" /><rect x="250" y="4605" width="1015" height="70" style="fill: rgb(191,144,0); fill-opacity: 1.0" /><rect x="395" y="4645" width="145" height="70" style="fill: rgb(35,35,35); fill-opacity: 1.0" /><rect x="685" y="4645" width="145" height="70" style="fill: rgb(35,35,35); fill-opacity: 1.0" /><rect x="975" y="4645" width="145" height="70" style="fill: rgb(35,35,35); fill-opacity: 1.0" /><rect x="250" y="4675" width="1015" height="110" style="fill: rgb(255,230,153); fill-opacity: 1.0" /><rect x="395" y="4675" width="145" height="110" style="fill: rgb(64,64,64); fill-opacity: 1.0" /><rect x="685" y="4675" width="145" height="110" style="fill: rgb(64,64,64); fill-opacity: 1.0" /><rect x="975" y="4675" width="145" height="110" style="fill: rgb(64,64,64); fill-opacity: 1.0" /><rect x="250" y="4785" width="1015" height="110" style="fill: rgb(187,178,139); fill-opacity: 1.0" /><rect x="395" y="4785" width="145" height="110" style="fill: rgb(118,113,113); fill-opacity: 1.0" /><rect x="685" y="4785" width="145" height="110" style="fill: rgb(118,113,113); fill-opacity: 1.0" /><rect x="975" y="4785" width="145" height="110" style="fill: rgb(118,113,113); fill-opacity: 1.0" /><rect x="250" y="4895" width="1015" height="45" style="fill: rgb(244,177,131); fill-opacity: 1.0" /><rect x="170" y="4785" width="80" height="110" style="fill: rgb(187,178,139); fill-opacity: 1.0" /><rect x="170" y="4895" width="80" height="45" style="fill: rgb(244,177,131); fill-opacity: 1.0" /><rect x="1265" y="4605" width="145" height="335" style="fill: rgb(244,177,131); fill-opacity: 1.0" /><rect x="1410" y="4605" width="1015" height="70" style="fill: rgb(191,144,0); fill-opacity: 1.0" /><rect x="1555" y="4645" width="145" height="70" style="fill: rgb(35,35,35); fill-opacity: 1.0" /><rect x="1845" y="4645" width="145" height="70" style="fill: rgb(35,35,35); fill-opacity: 1.0" /><rect x="2135" y="4645" width="145" height="70" style="fill: rgb(35,35,35); fill-opacity: 1.0" /><rect x="1410" y="4675" width="1015" height="110" style="fill: rgb(255,230,153); fill-opacity: 1.0" /><rect x="1555" y="4675" width="145" height="110" style="fill: rgb(64,64,64); fill-opacity: 1.0" /><rect x="1845" y="4675" width="145" height="110" style="fill: rgb(64,64,64); fill-opacity: 1.0" /><rect x="2135" y="4675" width="145" height="110" style="fill: rgb(64,64,64); fill-opacity: 1.0" /><rect x="1410" y="4785" width="1015" height="110" style="fill: rgb(187,178,139); fill-opacity: 1.0" /><rect x="1555" y="4785" width="145" height="110" style="fill: rgb(118,113,113); fill-opacity: 1.0" /><rect x="1845" y="4785" width="145" height="110" style="fill: rgb(118,113,113); fill-opacity: 1.0" /><rect x="2135" y="4785" width="145" height="110" style="fill: rgb(118,113,113); fill-opacity: 1.0" /><rect x="1410" y="4895" width="1015" height="45" style="fill: rgb(244,177,131); fill-opacity: 1.0" /><rect x="250" y="4940" width="1015" height="70" style="fill: rgb(191,144,0); fill-opacity: 1.0" /><rect x="395" y="4980" width="145" height="70" style="fill: rgb(35,35,35); fill-opacity: 1.0" /><rect x="685" y="4980" width="145" height="70" style="fill: rgb(35,35,35); fill-opacity: 1.0" /><rect x="975" y="4980" width="145" height="70" style="fill: rgb(35,35,35); fill-opacity: 1.0" /><rect x="250" y="5010" width="1015" height="110" style="fill: rgb(255,230,153); fill-opacity: 1.0" /><rect x="395" y="5010" width="145" height="110" style="fill: rgb(64,64,64); fill-opacity: 1.0" /><rect x="685" y="5010" width="145" height="110" style="fill: rgb(64,64,64); fill-opacity: 1.0" /><rect x="975" y="5010" width="145" height="110" style="fill: rgb(64,64,64); fill-opacity: 1.0" /><rect x="250" y="5120" width="1015" height="110" style="fill: rgb(187,178,139); fill-opacity: 1.0" /><rect x="395" y="5120" width="145" height="110" style="fill: rgb(118,113,113); fill-opacity: 1.0" /><rect x="685" y="5120" width="145" height="110" style="fill: rgb(118,113,113); fill-opacity: 1.0" /><rect x="975" y="5120" width="145" height="110" style="fill: rgb(118,113,113); fill-opacity: 1.0" /><rect x="250" y="5230" width="1015" height="45" style="fill: rgb(244,177,131); fill-opacity: 1.0" /><rect x="170" y="5120" width="80" height="110" style="fill: rgb(187,178,139); fill-opacity: 1.0" /><rect x="170" y="5230" width="80" height="45" style="fill: rgb(244,177,131); fill-opacity: 1.0" /><rect x="1265" y="4940" width="145" height="335" style="fill: rgb(244,177,131); fill-opacity: 1.0" /><rect x="1410" y="4940" width="1015" height="70" style="fill: rgb(191,144,0); fill-opacity: 1.0" /><rect x="1555" y="4980" width="145" height="70" style="fill: rgb(35,35,35); fill-opacity: 1.0" /><rect x="1845" y="4980" width="145" height="70" style="fill: rgb(35,35,35); fill-opacity: 1.0" /><rect x="2135" y="4980" width="145" height="70" style="fill: rgb(35,35,35); fill-opacity: 1.0" /><rect x="1410" y="5010" width="1015" height="110" style="fill: rgb(255,230,153); fill-opacity: 1.0" /><rect x="1555" y="5010" width="145" height="110" style="fill: rgb(64,64,64); fill-opacity: 1.0" /><rect x="1845" y="5010" width="145" height="110" style="fill: rgb(64,64,64); fill-opacity: 1.0" /><rect x="2135" y="5010" width="145" height="110" style="fill: rgb(64,64,64); fill-opacity: 1.0" /><rect x="1410" y="5120" width="1015" height="110" style="fill: rgb(187,178,139); fill-opacity: 1.0" /><rect x="1555" y="5120" width="145" height="110" style="fill: rgb(118,113,113); fill-opacity: 1.0" /><rect x="1845" y="5120" width="145" height="110" style="fill: rgb(118,113,113); fill-opacity: 1.0" /><rect x="2135" y="5120" width="145" height="110" style="fill: rgb(118,113,113); fill-opacity: 1.0" /><rect x="1410" y="5230" width="1015" height="45" style="fill: rgb(244,177,131); fill-opacity: 1.0" /></svg>
