<!DOCTYPE svg PUBLIC "-//W3C//DTD SVG 1.1//EN" "http://www.w3.org/Graphics/SVG/1.1/DTD/svg11.dtd">
<svg xmlns="http://www.w3.org/2000/svg" xmlns:xlink="http://www.w3.org/1999/xlink" xmlns:jfreesvg="http://www.jfree.org/jfreesvg/svg" width="3840pt" height="2160pt" text-rendering="auto" shape-rendering="auto">
<defs></defs>
<rect x="2674" y="500" width="54" height="1660" style="fill: rgb(223,219,217); fill-opacity: 1.0" /><rect x="3018" y="500" width="51" height="1660" style="fill: rgb(211,227,213); fill-opacity: 1.0" /><rect x="735" y="502" width="73" height="1658" style="fill: rgb(217,211,212); fill-opacity: 1.0" /><rect x="412" y="503" width="50" height="1657" style="fill: rgb(219,225,225); fill-opacity: 1.0" /><rect x="2321" y="504" width="75" height="1656" style="fill: rgb(216,211,219); fill-opacity: 1.0" /><rect x="526" y="504" width="55" height="1656" style="fill: rgb(215,214,207); fill-opacity: 1.0" /><rect x="4" y="505" width="59" height="1655" style="fill: rgb(206,212,216); fill-opacity: 1.0" /><rect x="3142" y="506" width="61" height="1654" style="fill: rgb(204,209,207); fill-opacity: 1.0" /><rect x="1144" y="508" width="81" height="1652" style="fill: rgb(216,212,207); fill-opacity: 1.0" /><rect x="1929" y="509" width="89" height="1651" style="fill: rgb(214,209,212); fill-opacity: 1.0" /><rect x="572" y="510" width="61" height="1650" style="fill: rgb(214,216,201); fill-opacity: 1.0" /><rect x="844" y="512" width="87" height="1648" style="fill: rgb(205,209,209); fill-opacity: 1.0" /><rect x="1223" y="512" width="90" height="1648" style="fill: rgb(215,208,204); fill-opacity: 1.0" /><rect x="3436" y="514" width="84" height="1646" style="fill: rgb(207,201,211); fill-opacity: 1.0" /><rect x="409" y="516" width="65" height="1644" style="fill: rgb(212,203,199); fill-opacity: 1.0" /><rect x="2875" y="519" width="74" height="1641" style="fill: rgb(205,204,204); fill-opacity: 1.0" /><rect x="1193" y="521" width="86" height="1639" style="fill: rgb(211,198,206); fill-opacity: 1.0" /><rect x="3022" y="523" width="67" height="1637" style="fill: rgb(204,199,209); fill-opacity: 1.0" /><rect x="3189" y="525" width="58" height="1635" style="fill: rgb(209,195,211); fill-opacity: 1.0" /><rect x="481" y="525" width="50" height="1635" style="fill: rgb(198,203,209); fill-opacity: 1.0" /><rect x="1438" y="526" width="70" height="1634" style="fill: rgb(192,206,200); fill-opacity: 1.0" /><rect x="3819" y="526" width="91" height="1634" style="fill: rgb(191,205,198); fill-opacity: 1.0" /><rect x="3052" y="527" width="85" height="1633" style="fill: rgb(196,198,189); fill-opacity: 1.0" /><rect x="2177" y="530" width="89" height="1630" style="fill: rgb(193,203,199); fill-opacity: 1.0" /><rect x="1398" y="531" width="62" height="1629" style="fill: rgb(195,190,205); fill-opacity: 1.0" /><rect x="1018" y="532" width="63" height="1628" style="fill: rgb(188,200,199); fill-opacity: 1.0" /><rect x="3100" y="535" width="78" height="1625" style="fill: rgb(185,203,198); fill-opacity: 1.0" /><rect x="3665" y="536" width="56" height="1624" style="fill: rgb(202,193,201); fill-opacity: 1.0" /><rect x="506" y="536" width="54" height="1624" style="fill: rgb(201,186,200); fill-opacity: 1.0" /><rect x="1460" y="536" width="65" height="1624" style="fill: rgb(191,182,185); fill-opacity: 1.0" /><rect x="920" y="536" width="54" height="1624" style="fill: rgb(187,185,192); fill-opacity: 1.0" /><rect x="1474" y="538" width="65" height="1622" style="fill: rgb(186,190,192); fill-opacity: 1.0" /><rect x="3692" y="541" width="67" height="1619" style="fill: rgb(185,186,186); fill-opacity: 1.0" /><rect x="3186" y="543" width="99" height="1617" style="fill: rgb(193,190,180); fill-opacity: 1.0" /><rect x="2076" y="546" width="85" height="1614" style="fill: rgb(193,191,188); fill-opacity: 1.0" /><rect x="3033" y="548" width="81" height="1612" style="fill: rgb(191,188,179); fill-opacity: 1.0" /><rect x="2644" y="551" width="51" height="1609" style="fill: rgb(183,190,178); fill-opacity: 1.0" /><rect x="1403" y="553" width="102" height="1607" style="fill: rgb(192,177,177); fill-opacity: 1.0" /><rect x="574" y="554" width="50" height="1606" style="fill: rgb(181,184,184); fill-opacity: 1.0" /><rect x="2197" y="557" width="90" height="1603" style="fill: rgb(181,181,178); fill-opacity: 1.0" /><rect x="972" y="557" width="73" height="1603" style="fill: rgb(178,189,181); fill-opacity: 1.0" /><rect x="3827" y="559" width="52" height="1601" style="fill: rgb(171,181,177); fill-opacity: 1.0" /><rect x="714" y="559" width="98" height="1601" style="fill: rgb(178,184,177); fill-opacity: 1.0" /><rect x="1570" y="561" width="83" height="1599" style="fill: rgb(168,184,171); fill-opacity: 1.0" /><rect x="2617" y="562" width="95" height="1598" style="fill: rgb(172,175,168); fill-opacity: 1.0" /><rect x="889" y="564" width="76" height="1596" style="fill: rgb(171,172,180); fill-opacity: 1.0" /><rect x="2053" y="564" width="67" height="1596" style="fill: rgb(173,165,168); fill-opacity: 1.0" /><rect x="2656" y="565" width="90" height="1595" style="fill: rgb(174,176,173); fill-opacity: 1.0" /><rect x="2841" y="567" width="93" height="1593" style="fill: rgb(172,168,178); fill-opacity: 1.0" /><rect x="2399" y="570" width="83" height="1590" style="fill: rgb(177,180,164); fill-opacity: 1.0" /><rect x="754" y="570" width="109" height="1590" style="fill: rgb(171,170,177); fill-opacity: 1.0" /><rect x="1017" y="574" width="58" height="1586" style="fill: rgb(178,178,168); fill-opacity: 1.0" /><rect x="2932" y="575" width="95" height="1585" style="fill: rgb(165,168,159); fill-opacity: 1.0" /><rect x="3616" y="575" width="68" height="1585" style="fill: rgb(165,160,176); fill-opacity: 1.0" /><rect x="97" y="578" width="53" height="1582" style="fill: rgb(173,171,172); fill-opacity: 1.0" /><rect x="1544" y="582" width="66" height="1578" style="fill: rgb(170,165,160); fill-opacity: 1.0" /><rect x="1526" y="586" width="111" height="1574" style="fill: rgb(165,164,155); fill-opacity: 1.0" /><rect x="1904" y="587" width="82" height="1573" style="fill: rgb(161,167,159); fill-opacity: 1.0" /><rect x="875" y="588" width="51" height="1572" style="fill: rgb(156,171,157); fill-opacity: 1.0" /><rect x="795" y="588" width="103" height="1572" style="fill: rgb(165,162,155); fill-opacity: 1.0" /><rect x="978" y="590" width="98" height="1570" style="fill: rgb(158,159,161); fill-opacity: 1.0" /><rect x="1795" y="590" width="109" height="1570" style="fill: rgb(166,161,154); fill-opacity: 1.0" /><rect x="913" y="594" width="55" height="1566" style="fill: rgb(158,162,165); fill-opacity: 1.0" /><rect x="3324" y="594" width="89" height="1566" style="fill: rgb(148,157,161); fill-opacity: 1.0" /><rect x="2803" y="598" width="56" height="1562" style="fill: rgb(165,160,165); fill-opacity: 1.0" /><rect x="1011" y="601" width="103" height="1559" style="fill: rgb(150,162,164); fill-opacity: 1.0" /><rect x="3245" y="601" width="64" height="1559" style="fill: rgb(154,155,154); fill-opacity: 1.0" /><rect x="1691" y="601" width="72" height="1559" style="fill: rgb(145,157,153); fill-opacity: 1.0" /><rect x="1808" y="602" width="114" height="1558" style="fill: rgb(160,158,160); fill-opacity: 1.0" /><rect x="874" y="606" width="60" height="1554" style="fill: rgb(143,153,155); fill-opacity: 1.0" /><rect x="2667" y="607" width="57" height="1553" style="fill: rgb(157,150,152); fill-opacity: 1.0" /><rect x="520" y="611" width="88" height="1549" style="fill: rgb(149,153,141); fill-opacity: 1.0" /><rect x="953" y="615" width="51" height="1545" style="fill: rgb(148,142,140); fill-opacity: 1.0" /><rect x="991" y="616" width="91" height="1544" style="fill: rgb(155,156,147); fill-opacity: 1.0" /><rect x="2029" y="620" width="74" height="1540" style="fill: rgb(154,142,142); fill-opacity: 1.0" /><rect x="843" y="624" width="112" height="1536" style="fill: rgb(147,147,147); fill-opacity: 1.0" /><rect x="869" y="624" width="108" height="1536" style="fill: rgb(150,151,139); fill-opacity: 1.0" /><rect x="544" y="626" width="103" height="1534" style="fill: rgb(138,140,147); fill-opacity: 1.0" /><rect x="3044" y="626" width="87" height="1534" style="fill: rgb(140,150,142); fill-opacity: 1.0" /><rect x="135" y="627" width="61" height="1533" style="fill: rgb(141,142,148); fill-opacity: 1.0" /><rect x="3354" y="629" width="58" height="1531" style="fill: rgb(143,149,145); fill-opacity: 1.0" /><rect x="2543" y="630" width="50" height="1530" style="fill: rgb(135,131,142); fill-opacity: 1.0" /><rect x="1843" y="630" width="78" height="1530" style="fill: rgb(147,129,134); fill-opacity: 1.0" /><rect x="3016" y="632" width="128" height="1528" style="fill: rgb(146,141,128); fill-opacity: 1.0" /><rect x="55" y="634" width="88" height="1526" style="fill: rgb(127,131,131); fill-opacity: 1.0" /><rect x="3056" y="635" width="110" height="1525" style="fill: rgb(144,140,135); fill-opacity: 1.0" /><rect x="1249" y="641" width="84" height="1519" style="fill: rgb(139,139,134); fill-opacity: 1.0" /><rect x="92" y="644" width="104" height="1516" style="fill: rgb(128,142,127); fill-opacity: 1.0" /><rect x="2945" y="644" width="110" height="1516" style="fill: rgb(137,132,136); fill-opacity: 1.0" /><rect x="2090" y="646" width="95" height="1514" style="fill: rgb(125,137,140); fill-opacity: 1.0" /><rect x="2815" y="647" width="105" height="1513" style="fill: rgb(133,134,128); fill-opacity: 1.0" /><rect x="145" y="649" width="108" height="1511" style="fill: rgb(128,131,126); fill-opacity: 1.0" /><rect x="1388" y="651" width="73" height="1509" style="fill: rgb(128,128,127); fill-opacity: 1.0" /><rect x="857" y="651" width="97" height="1509" style="fill: rgb(129,134,134); fill-opacity: 1.0" /><rect x="195" y="655" width="139" height="1505" style="fill: rgb(118,123,134); fill-opacity: 1.0" /><rect x="2123" y="658" width="104" height="1502" style="fill: rgb(134,126,122); fill-opacity: 1.0" /><rect x="333" y="662" width="112" height="1498" style="fill: rgb(121,128,130); fill-opacity: 1.0" /><rect x="989" y="667" width="50" height="1493" style="fill: rgb(132,115,132); fill-opacity: 1.0" /><rect x="234" y="671" width="149" height="1489" style="fill: rgb(126,115,123); fill-opacity: 1.0" /><rect x="1716" y="671" width="141" height="1489" style="fill: rgb(117,130,113); fill-opacity: 1.0" /><rect x="3300" y="674" width="66" height="1486" style="fill: rgb(126,129,115); fill-opacity: 1.0" /><rect x="3056" y="675" width="122" height="1485" style="fill: rgb(110,119,128); fill-opacity: 1.0" /><rect x="3135" y="679" width="89" height="1481" style="fill: rgb(120,111,117); fill-opacity: 1.0" /><rect x="1559" y="683" width="56" height="1477" style="fill: rgb(117,122,111); fill-opacity: 1.0" /><rect x="641" y="687" width="143" height="1473" style="fill: rgb(107,112,117); fill-opacity: 1.0" /><rect x="2694" y="691" width="64" height="1469" style="fill: rgb(115,115,117); fill-opacity: 1.0" /><rect x="712" y="694" width="137" height="1466" style="fill: rgb(109,108,110); fill-opacity: 1.0" /><rect x="2697" y="694" width="50" height="1466" style="fill: rgb(108,119,117); fill-opacity: 1.0" /><rect x="1424" y="697" width="144" height="1463" style="fill: rgb(103,110,113); fill-opacity: 1.0" /><rect x="2804" y="699" width="154" height="1461" style="fill: rgb(111,116,119); fill-opacity: 1.0" /><rect x="2803" y="700" width="81" height="1460" style="fill: rgb(119,102,102); fill-opacity: 1.0" /><rect x="2048" y="707" width="55" height="1453" style="fill: rgb(115,111,104); fill-opacity: 1.0" /><rect x="2408" y="708" width="134" height="1452" style="fill: rgb(103,112,105); fill-opacity: 1.0" /><rect x="3643" y="715" width="95" height="1445" style="fill: rgb(110,112,101); fill-opacity: 1.0" /><rect x="3028" y="715" width="120" height="1445" style="fill: rgb(114,113,106); fill-opacity: 1.0" /><rect x="2309" y="715" width="134" height="1445" style="fill: rgb(96,113,96); fill-opacity: 1.0" /><rect x="3502" y="716" width="137" height="1444" style="fill: rgb(109,102,108); fill-opacity: 1.0" /><rect x="2721" y="723" width="103" height="1437" style="fill: rgb(101,103,108); fill-opacity: 1.0" /><rect x="3391" y="729" width="68" height="1431" style="fill: rgb(102,95,105); fill-opacity: 1.0" /><rect x="3338" y="733" width="93" height="1427" style="fill: rgb(96,96,96); fill-opacity: 1.0" /><rect x="3469" y="736" width="87" height="1424" style="fill: rgb(108,100,102); fill-opacity: 1.0" /><rect x="2807" y="736" width="168" height="1424" style="fill: rgb(98,106,95); fill-opacity: 1.0" /><rect x="3161" y="744" width="137" height="1416" style="fill: rgb(98,94,107); fill-opacity: 1.0" /><rect x="2593" y="748" width="76" height="1412" style="fill: rgb(106,101,100); fill-opacity: 1.0" /><rect x="2734" y="748" width="81" height="1412" style="fill: rgb(89,89,98); fill-opacity: 1.0" /><rect x="421" y="748" width="53" height="1412" style="fill: rgb(95,91,103); fill-opacity: 1.0" /><rect x="484" y="749" width="125" height="1411" style="fill: rgb(93,97,102); fill-opacity: 1.0" /><rect x="2461" y="751" width="64" height="1409" style="fill: rgb(92,96,91); fill-opacity: 1.0" /><rect x="2722" y="753" width="163" height="1407" style="fill: rgb(90,97,89); fill-opacity: 1.0" /><rect x="1127" y="754" width="139" height="1406" style="fill: rgb(91,97,85); fill-opacity: 1.0" /><rect x="2403" y="763" width="147" height="1397" style="fill: rgb(97,85,98); fill-opacity: 1.0" /><rect x="208" y="772" width="161" height="1388" style="fill: rgb(85,82,91); fill-opacity: 1.0" /><rect x="3633" y="778" width="98" height="1382" style="fill: rgb(97,97,94); fill-opacity: 1.0" /><rect x="1365" y="779" width="183" height="1381" style="fill: rgb(89,94,84); fill-opacity: 1.0" /><rect x="1504" y="784" width="64" height="1376" style="fill: rgb(91,88,91); fill-opacity: 1.0" /><rect x="2550" y="785" width="173" height="1375" style="fill: rgb(78,77,82); fill-opacity: 1.0" /><rect x="3518" y="789" width="51" height="1371" style="fill: rgb(91,80,83); fill-opacity: 1.0" /><rect x="415" y="791" width="150" height="1369" style="fill: rgb(74,83,82); fill-opacity: 1.0" /><rect x="1258" y="794" width="164" height="1366" style="fill: rgb(89,87,83); fill-opacity: 1.0" /><rect x="263" y="795" width="101" height="1365" style="fill: rgb(90,87,82); fill-opacity: 1.0" /><rect x="2478" y="799" width="95" height="1361" style="fill: rgb(71,88,82); fill-opacity: 1.0" /><rect x="3343" y="800" width="74" height="1360" style="fill: rgb(78,82,82); fill-opacity: 1.0" /><rect x="275" y="804" width="127" height="1356" style="fill: rgb(74,82,84); fill-opacity: 1.0" /><rect x="491" y="804" width="50" height="1356" style="fill: rgb(72,79,79); fill-opacity: 1.0" /><rect x="1418" y="808" width="80" height="1352" style="fill: rgb(76,69,82); fill-opacity: 1.0" /><rect x="3657" y="812" width="92" height="1348" style="fill: rgb(79,83,78); fill-opacity: 1.0" /><rect x="270" y="818" width="154" height="1342" style="fill: rgb(81,79,68); fill-opacity: 1.0" /><rect x="352" y="825" width="131" height="1335" style="fill: rgb(73,77,79); fill-opacity: 1.0" /><rect x="1089" y="836" width="127" height="1324" style="fill: rgb(72,67,64); fill-opacity: 1.0" /><rect x="591" y="836" width="129" height="1324" style="fill: rgb(73,66,78); fill-opacity: 1.0" /><rect x="3623" y="840" width="192" height="1320" style="fill: rgb(70,78,75); fill-opacity: 1.0" /><rect x="1409" y="841" width="207" height="1319" style="fill: rgb(65,62,60); fill-opacity: 1.0" /><rect x="458" y="851" width="152" height="1309" style="fill: rgb(63,77,66); fill-opacity: 1.0" /><rect x="3269" y="852" width="74" height="1308" style="fill: rgb(58,73,73); fill-opacity: 1.0" /><rect x="1992" y="852" width="157" height="1308" style="fill: rgb(65,60,69); fill-opacity: 1.0" /><rect x="452" y="857" width="175" height="1303" style="fill: rgb(73,74,67); fill-opacity: 1.0" /><rect x="2063" y="860" width="149" height="1300" style="fill: rgb(59,69,69); fill-opacity: 1.0" /><rect x="1787" y="871" width="76" height="1289" style="fill: rgb(60,64,58); fill-opacity: 1.0" /><rect x="564" y="873" width="216" height="1287" style="fill: rgb(70,56,54); fill-opacity: 1.0" /><rect x="472" y="876" width="146" height="1284" style="fill: rgb(61,60,53); fill-opacity: 1.0" /><rect x="2249" y="883" width="155" height="1277" style="fill: rgb(52,53,68); fill-opacity: 1.0" /><rect x="1467" y="895" width="66" height="1265" style="fill: rgb(59,57,53); fill-opacity: 1.0" /><rect x="682" y="906" width="112" height="1254" style="fill: rgb(58,65,59); fill-opacity: 1.0" /><rect x="2230" y="909" width="56" height="1251" style="fill: rgb(54,56,65); fill-opacity: 1.0" /><rect x="2777" y="908" width="210" height="1252" style="fill: rgb(53,63,62); fill-opacity: 1.0" /><rect x="2398" y="912" width="98" height="1248" style="fill: rgb(51,60,61); fill-opacity: 1.0" /><rect x="2734" y="925" width="133" height="1235" style="fill: rgb(49,57,54); fill-opacity: 1.0" /><rect x="3044" y="926" width="114" height="1234" style="fill: rgb(51,62,62); fill-opacity: 1.0" /><rect x="554" y="926" width="157" height="1234" style="fill: rgb(55,52,43); fill-opacity: 1.0" /><rect x="3234" y="931" width="83" height="1229" style="fill: rgb(55,51,49); fill-opacity: 1.0" /><rect x="20" y="931" width="111" height="1229" style="fill: rgb(45,45,43); fill-opacity: 1.0" /><rect x="3490" y="945" width="163" height="1215" style="fill: rgb(41,46,48); fill-opacity: 1.0" /><rect x="1583" y="948" width="212" height="1212" style="fill: rgb(57,46,51); fill-opacity: 1.0" /><rect x="1621" y="955" width="173" height="1205" style="fill: rgb(49,51,49); fill-opacity: 1.0" /><rect x="532" y="968" width="180" height="1192" style="fill: rgb(41,54,52); fill-opacity: 1.0" /><rect x="645" y="967" width="56" height="1193" style="fill: rgb(39,53,40); fill-opacity: 1.0" /><rect x="2459" y="970" width="105" height="1190" style="fill: rgb(43,50,39); fill-opacity: 1.0" /><rect x="2999" y="981" width="58" height="1179" style="fill: rgb(43,51,37); fill-opacity: 1.0" /><rect x="3198" y="995" width="143" height="1165" style="fill: rgb(43,41,51); fill-opacity: 1.0" /><rect x="1228" y="1004" width="237" height="1156" style="fill: rgb(43,47,32); fill-opacity: 1.0" /><rect x="2756" y="1005" width="212" height="1155" style="fill: rgb(47,39,47); fill-opacity: 1.0" /><rect x="567" y="1014" width="136" height="1146" style="fill: rgb(42,37,32); fill-opacity: 1.0" /><rect x="2018" y="1027" width="200" height="1133" style="fill: rgb(38,37,39); fill-opacity: 1.0" /><rect x="608" y="1030" width="227" height="1130" style="fill: rgb(40,44,40); fill-opacity: 1.0" /><rect x="1262" y="1040" width="213" height="1120" style="fill: rgb(44,33,30); fill-opacity: 1.0" /><rect x="1514" y="1041" width="281" height="1119" style="fill: rgb(31,32,35); fill-opacity: 1.0" /><rect x="307" y="1043" width="82" height="1117" style="fill: rgb(28,33,42); fill-opacity: 1.0" /><rect x="1354" y="1058" width="270" height="1102" style="fill: rgb(33,31,36); fill-opacity: 1.0" /><rect x="2916" y="1063" width="265" height="1097" style="fill: rgb(25,34,38); fill-opacity: 1.0" /><rect x="2787" y="1074" width="155" height="1086" style="fill: rgb(32,37,32); fill-opacity: 1.0" /><rect x="2883" y="1079" width="145" height="1081" style="fill: rgb(29,31,39); fill-opacity: 1.0" /><rect x="29" y="1086" width="201" height="1074" style="fill: rgb(35,25,30); fill-opacity: 1.0" /><rect x="2832" y="1101" width="98" height="1059" style="fill: rgb(25,24,28); fill-opacity: 1.0" /><rect x="1085" y="1101" width="305" height="1059" style="fill: rgb(30,18,36); fill-opacity: 1.0" /><rect x="1052" y="1108" width="215" height="1052" style="fill: rgb(23,26,20); fill-opacity: 1.0" /><rect x="2453" y="1116" width="95" height="1044" style="fill: rgb(17,31,28); fill-opacity: 1.0" /><rect x="3088" y="1119" width="170" height="1041" style="fill: rgb(26,31,20); fill-opacity: 1.0" /><rect x="3728" y="1120" width="81" height="1040" style="fill: rgb(23,26,18); fill-opacity: 1.0" /><rect x="782" y="1125" width="284" height="1035" style="fill: rgb(22,29,30); fill-opacity: 1.0" /><rect x="1901" y="1126" width="281" height="1034" style="fill: rgb(27,24,13); fill-opacity: 1.0" /><rect x="3686" y="1135" width="109" height="1025" style="fill: rgb(21,13,25); fill-opacity: 1.0" /><rect x="278" y="1149" width="232" height="1011" style="fill: rgb(17,14,19); fill-opacity: 1.0" /><rect x="3334" y="1149" width="238" height="1011" style="fill: rgb(12,23,9); fill-opacity: 1.0" /><rect x="1580" y="1156" width="308" height="1004" style="fill: rgb(9,12,14); fill-opacity: 1.0" /><rect x="2240" y="1175" width="67" height="985" style="fill: rgb(9,11,13); fill-opacity: 1.0" /><rect x="1729" y="1192" width="292" height="968" style="fill: rgb(11,23,21); fill-opacity: 1.0" /><rect x="2169" y="1207" width="143" height="953" style="fill: rgb(8,6,17); fill-opacity: 1.0" /><rect x="2407" y="1223" width="235" height="937" style="fill: rgb(6,8,8); fill-opacity: 1.0" /><rect x="3340" y="1236" width="189" height="924" style="fill: rgb(20,14,12); fill-opacity: 1.0" /><rect x="1537" y="1256" width="338" height="904" style="fill: rgb(7,19,9); fill-opacity: 1.0" /><rect x="3314" y="1276" width="174" height="884" style="fill: rgb(16,3,9); fill-opacity: 1.0" /><rect x="965" y="1284" width="310" height="876" style="fill: rgb(1,6,15); fill-opacity: 1.0" /><rect x="1084" y="1297" width="112" height="863" style="fill: rgb(5,13,8); fill-opacity: 1.0" /><rect x="1785" y="1309" width="146" height="851" style="fill: rgb(11,11,15); fill-opacity: 1.0" /><rect x="543" y="1324" width="306" height="836" style="fill: rgb(1,1,4); fill-opacity: 1.0" /><rect x="1203" y="1325" width="110" height="835" style="fill: rgb(1,5,11); fill-opacity: 1.0" /><rect x="2936" y="1325" width="232" height="835" style="fill: rgb(1,1,1); fill-opacity: 1.0" /><rect x="2926" y="1340" width="359" height="820" style="fill: rgb(11,2,1); fill-opacity: 1.0" /><rect x="2785" y="1340" width="350" height="820" style="fill: rgb(11,7,1); fill-opacity: 1.0" /><rect x="2204" y="1353" width="91" height="807" style="fill: rgb(1,1,8); fill-opacity: 1.0" /><rect x="2726" y="1373" width="109" height="787" style="fill: rgb(1,1,3); fill-opacity: 1.0" /><rect x="2459" y="1386" width="143" height="774" style="fill: rgb(1,1,1); fill-opacity: 1.0" /><rect x="955" y="1403" width="170" height="757" style="fill: rgb(1,1,3); fill-opacity: 1.0" /><rect x="2068" y="1416" width="229" height="744" style="fill: rgb(1,1,6); fill-opacity: 1.0" /><rect x="3584" y="1423" width="57" height="737" style="fill: rgb(1,2,1); fill-opacity: 1.0" /><rect x="2771" y="1439" width="202" height="721" style="fill: rgb(1,1,1); fill-opacity: 1.0" /><rect x="423" y="1446" width="296" height="714" style="fill: rgb(1,1,1); fill-opacity: 1.0" /><rect x="1355" y="1467" width="181" height="693" style="fill: rgb(1,1,1); fill-opacity: 1.0" /><rect x="545" y="1491" width="390" height="669" style="fill: rgb(1,1,1); fill-opacity: 1.0" /><rect x="2427" y="1512" width="93" height="648" style="fill: rgb(1,1,1); fill-opacity: 1.0" /><rect x="557" y="1514" width="343" height="646" style="fill: rgb(1,1,1); fill-opacity: 1.0" /><rect x="1973" y="1522" width="325" height="638" style="fill: rgb(1,1,1); fill-opacity: 1.0" /><rect x="2499" y="1528" width="379" height="632" style="fill: rgb(1,1,1); fill-opacity: 1.0" /><rect x="3795" y="1549" width="166" height="611" style="fill: rgb(1,1,1); fill-opacity: 1.0" /><rect x="3393" y="1551" width="362" height="609" style="fill: rgb(1,1,1); fill-opacity: 1.0" /><rect x="2232" y="1560" width="155" height="600" style="fill: rgb(1,1,1); fill-opacity: 1.0" /><rect x="1303" y="1574" width="211" height="586" style="fill: rgb(1,1,1); fill-opacity: 1.0" /><rect x="1704" y="1577" width="384" height="583" style="fill: rgb(1,1,1); fill-opacity: 1.0" /><rect x="67" y="1604" width="67" height="556" style="fill: rgb(1,1,1); fill-opacity: 1.0" /><rect x="1238" y="1610" width="333" height="550" style="fill: rgb(1,1,1); fill-opacity: 1.0" /><rect x="368" y="1622" width="280" height="538" style="fill: rgb(1,1,1); fill-opacity: 1.0" /><rect x="3273" y="1630" width="90" height="530" style="fill: rgb(1,1,1); fill-opacity: 1.0" /><rect x="3628" y="1659" width="95" height="501" style="fill: rgb(1,1,1); fill-opacity: 1.0" /><rect x="3738" y="1673" width="124" height="487" style="fill: rgb(1,1,1); fill-opacity: 1.0" /><rect x="936" y="1684" width="374" height="476" style="fill: rgb(1,1,1); fill-opacity: 1.0" /><rect x="3305" y="1695" width="474" height="465" style="fill: rgb(1,1,1); fill-opacity: 1.0" /><rect x="1983" y="1714" width="110" height="446" style="fill: rgb(1,1,1); fill-opacity: 1.0" /><rect x="2118" y="1733" width="247" height="427" style="fill: rgb(1,1,1); fill-opacity: 1.0" /><rect x="2683" y="1737" width="270" height="423" style="fill: rgb(1,1,1); fill-opacity: 1.0" /><rect x="1869" y="1758" width="102" height="402" style="fill: rgb(1,1,1); fill-opacity: 1.0" /><rect x="1346" y="1763" width="495" height="397" style="fill: rgb(1,1,1); fill-opacity: 1.0" /><rect x="1545" y="1761" width="132" height="399" style="fill: rgb(1,1,1); fill-opacity: 1.0" /><rect x="3260" y="1759" width="115" height="401" style="fill: rgb(1,1,1); fill-opacity: 1.0" /><rect x="1891" y="1784" width="461" height="376" style="fill: rgb(1,1,1); fill-opacity: 1.0" /><rect x="1318" y="1796" width="349" height="364" style="fill: rgb(1,1,1); fill-opacity: 1.0" /><rect x="1585" y="1809" width="464" height="351" style="fill: rgb(1,1,1); fill-opacity: 1.0" /><rect x="1577" y="1808" width="440" height="352" style="fill: rgb(1,1,1); fill-opacity: 1.0" /><rect x="2347" y="1839" width="400" height="321" style="fill: rgb(1,1,1); fill-opacity: 1.0" /><rect x="917" y="1857" width="190" height="303" style="fill: rgb(1,1,1); fill-opacity: 1.0" /><rect x="2217" y="1861" width="182" height="299" style="fill: rgb(1,1,1); fill-opacity: 1.0" /><rect x="2867" y="1873" width="235" height="287" style="fill: rgb(1,1,1); fill-opacity: 1.0" /><rect x="3586" y="1873" width="485" height="287" style="fill: rgb(1,1,1); fill-opacity: 1.0" /><rect x="1487" y="1893" width="477" height="267" style="fill: rgb(1,1,1); fill-opacity: 1.0" /><rect x="3262" y="1892" width="130" height="268" style="fill: rgb(1,1,1); fill-opacity: 1.0" /><rect x="1544" y="1908" width="501" height="252" style="fill: rgb(1,1,1); fill-opacity: 1.0" /><rect x="78" y="1923" width="205" height="237" style="fill: rgb(1,1,1); fill-opacity: 1.0" /><rect x="212" y="1949" width="439" height="211" style="fill: rgb(1,1,1); fill-opacity: 1.0" /><rect x="1764" y="1958" width="560" height="202" style="fill: rgb(1,1,1); fill-opacity: 1.0" /><rect x="3259" y="1964" width="97" height="196" style="fill: rgb(1,1,1); fill-opacity: 1.0" /><rect x="2054" y="1993" width="494" height="167" style="fill: rgb(1,1,1); fill-opacity: 1.0" /><rect x="3512" y="1999" width="246" height="161" style="fill: rgb(1,1,1); fill-opacity: 1.0" /><rect x="521" y="2031" width="334" height="129" style="fill: rgb(1,1,1); fill-opacity: 1.0" /><rect x="2629" y="2069" width="573" height="91" style="fill: rgb(1,1,1); fill-opacity: 1.0" /><rect x="1820" y="2101" width="222" height="59" style="fill: rgb(1,1,1); fill-opacity: 1.0" /><rect x="2221" y="2132" width="327" height="28" style="fill: rgb(1,1,1); fill-opacity: 1.0" /><rect x="3509" y="2153" width="609" height="7" style="fill: rgb(1,1,1); fill-opacity: 1.0" /></svg>
